<svg width="118" height="32" viewBox="0 0 118 32" fill="none" xmlns="http://www.w3.org/2000/svg">
<path fill-rule="evenodd" clip-rule="evenodd" d="M25.5067 21.3333C26.2549 21.3333 26.9851 21.4111 27.6897 21.5591V0.226968C26.9851 0.0790216 26.255 0.000853188 25.5067 0C19.9458 0.0031732 15.3821 4.27992 14.9069 9.73159C17.6076 10.2321 19.6531 12.6053 19.6531 15.4575C19.6531 18.6735 17.0524 21.2806 13.8442 21.2806C10.636 21.2806 8.03525 18.6735 8.03525 15.4575C8.03525 12.6754 9.98147 10.349 12.5836 9.77186C12.1272 4.29872 7.5513 3.28595e-06 1.97424 3.28595e-06C1.29958 0.000771155 0.639609 0.0644748 -9.69555e-05 0.185568V21.5168C0.639642 21.3963 1.29961 21.3333 1.97424 21.3333C7.84188 21.3367 12.621 26.1059 12.621 31.9879L14.8661 32C14.8661 26.109 19.6301 21.3333 25.5067 21.3333Z" fill="#3B00FF"/>
<path d="M36.8799 4.94761H41.2331L45.8308 16.0921H46.0264L50.6242 4.94761H54.9773V21.5348H51.5535V10.7385H51.4149L47.0944 21.4538H44.7629L40.4423 10.6981H40.3037V21.5348H36.8799V4.94761Z" fill="#3B00FF"/>
<path d="M57.8204 21.5348V9.09441H61.2931V21.5348H57.8204ZM59.5649 7.49076C59.0486 7.49076 58.6057 7.32068 58.2361 6.98051C57.872 6.63494 57.6899 6.22188 57.6899 5.74133C57.6899 5.26618 57.872 4.85852 58.2361 4.51835C58.6057 4.17278 59.0486 4 59.5649 4C60.0812 4 60.5214 4.17278 60.8855 4.51835C61.2551 4.85852 61.4399 5.26618 61.4399 5.74133C61.4399 6.22188 61.2551 6.63494 60.8855 6.98051C60.5214 7.32068 60.0812 7.49076 59.5649 7.49076Z" fill="#3B00FF"/>
<path d="M67.5477 14.3427V21.5348H64.075V9.09441H67.3847V11.2893H67.5314C67.8086 10.5658 68.2733 9.99342 68.9254 9.57226C69.5776 9.1457 70.3683 8.93242 71.2977 8.93242C72.1672 8.93242 72.9254 9.1214 73.5721 9.49937C74.2188 9.87733 74.7215 10.4173 75.0802 11.1192C75.4389 11.8157 75.6182 12.6473 75.6182 13.6138V21.5348H72.1455V14.2293C72.1509 13.468 71.9553 12.874 71.5585 12.4475C71.1618 12.0155 70.6156 11.7995 69.92 11.7995C69.4526 11.7995 69.0396 11.8994 68.6809 12.0992C68.3276 12.299 68.0505 12.5906 67.8494 12.9739C67.6537 13.3519 67.5532 13.8082 67.5477 14.3427Z" fill="#3B00FF"/>
<path d="M85.0155 9.09441V11.6862H77.4749V9.09441H85.0155ZM79.1868 6.1139H82.6595V17.712C82.6595 18.0305 82.7085 18.2789 82.8063 18.4571C82.9041 18.6299 83.04 18.7514 83.2139 18.8216C83.3932 18.8918 83.5997 18.9269 83.8334 18.9269C83.9965 18.9269 84.1595 18.9134 84.3225 18.8864C84.4856 18.854 84.6106 18.8297 84.6975 18.8135L85.2437 21.3809C85.0698 21.4349 84.8253 21.497 84.51 21.5672C84.1948 21.6428 83.8117 21.6887 83.3606 21.7049C82.5237 21.7373 81.79 21.6266 81.1596 21.3728C80.5346 21.119 80.0482 20.7249 79.7004 20.1903C79.3525 19.6558 79.1813 18.9808 79.1868 18.1655V6.1139Z" fill="#3B00FF"/>
<path d="M93.9378 9.09441V11.6862H86.3972V9.09441H93.9378ZM88.1092 6.1139H91.5819V17.712C91.5819 18.0305 91.6308 18.2789 91.7286 18.4571C91.8265 18.6299 91.9623 18.7514 92.1363 18.8216C92.3156 18.8918 92.5221 18.9269 92.7558 18.9269C92.9188 18.9269 93.0819 18.9134 93.2449 18.8864C93.408 18.854 93.533 18.8297 93.6199 18.8135L94.1661 21.3809C93.9922 21.4349 93.7476 21.497 93.4324 21.5672C93.1172 21.6428 92.7341 21.6887 92.283 21.7049C91.446 21.7373 90.7124 21.6266 90.0819 21.3728C89.457 21.119 88.9706 20.7249 88.6227 20.1903C88.2749 19.6558 88.1037 18.9808 88.1092 18.1655V6.1139Z" fill="#3B00FF"/>
<path d="M101.772 21.7778C100.484 21.7778 99.3752 21.5186 98.4459 21.0003C97.522 20.4765 96.8101 19.7368 96.3101 18.7811C95.8101 17.82 95.5601 16.6834 95.5601 15.3713C95.5601 14.0916 95.8101 12.9685 96.3101 12.002C96.8101 11.0355 97.5139 10.2823 98.4215 9.74234C99.3345 9.2024 100.405 8.93242 101.633 8.93242C102.459 8.93242 103.228 9.06471 103.94 9.32928C104.658 9.58846 105.283 9.97992 105.815 10.5037C106.353 11.0274 106.772 11.6862 107.071 12.4799C107.37 13.2682 107.519 14.1915 107.519 15.2498V16.1974H96.9459V14.0592H104.25C104.25 13.5625 104.141 13.1224 103.924 12.7391C103.707 12.3557 103.405 12.056 103.019 11.84C102.639 11.6187 102.196 11.508 101.69 11.508C101.163 11.508 100.696 11.6295 100.288 11.8724C99.8861 12.11 99.5709 12.4313 99.3426 12.8362C99.1144 13.2358 98.9975 13.6813 98.9921 14.1726V16.2055C98.9921 16.8211 99.1062 17.3529 99.3345 17.8011C99.5682 18.2492 99.897 18.5948 100.321 18.8378C100.745 19.0807 101.247 19.2022 101.829 19.2022C102.215 19.2022 102.568 19.1482 102.889 19.0402C103.209 18.9323 103.484 18.7703 103.712 18.5543C103.94 18.3383 104.114 18.0737 104.234 17.7606L107.446 17.9711C107.283 18.7379 106.948 19.4074 106.443 19.9798C105.943 20.5467 105.296 20.9895 104.503 21.308C103.715 21.6212 102.805 21.7778 101.772 21.7778Z" fill="#3B00FF"/>
<path d="M109.785 21.5348V9.09441H113.152V11.265H113.283C113.511 10.4929 113.894 9.90973 114.432 9.51557C114.97 9.116 115.59 8.91622 116.291 8.91622C116.465 8.91622 116.652 8.92702 116.853 8.94862C117.054 8.97022 117.231 8.99992 117.383 9.03771V12.0992C117.22 12.0506 116.994 12.0074 116.706 11.9696C116.418 11.9318 116.155 11.9129 115.916 11.9129C115.405 11.9129 114.948 12.0236 114.546 12.245C114.149 12.461 113.834 12.7634 113.6 13.1521C113.372 13.5409 113.258 13.989 113.258 14.4966V21.5348H109.785Z" fill="#3B00FF"/>
</svg>
