<svg width="118" height="32" fill="none" xmlns="http://www.w3.org/2000/svg"><path fill-rule="evenodd" clip-rule="evenodd" d="M25.507 21.333c.748 0 1.478.078 2.183.226V.227A10.673 10.673 0 0 0 25.507 0c-5.561.003-10.125 4.28-10.6 9.732 2.7.5 4.746 2.873 4.746 5.726 0 3.216-2.6 5.823-5.809 5.823-3.208 0-5.809-2.607-5.809-5.823a5.822 5.822 0 0 1 4.549-5.686C12.127 4.299 7.55 0 1.974 0 1.3 0 .64.064 0 .186v21.33c.64-.12 1.3-.183 1.974-.183 5.868.004 10.647 4.773 10.647 10.655l2.245.012c0-5.891 4.764-10.667 10.64-10.667z" fill="#fff"/><path d="M36.88 4.948h4.353l4.598 11.144h.195l4.598-11.144h4.353v16.587h-3.423V10.739h-.14l-4.32 10.715h-2.331l-4.32-10.756h-.14v10.837H36.88V4.948zM57.82 21.535V9.095h3.473v12.44H57.82zM59.565 7.49c-.516 0-.96-.17-1.329-.51-.364-.346-.546-.76-.546-1.24 0-.475.182-.882.546-1.223.37-.345.813-.518 1.329-.518s.956.173 1.32.518c.37.34.555.748.555 1.223 0 .48-.185.894-.554 1.24-.365.34-.805.51-1.321.51zM67.548 14.343v7.192h-3.473V9.095h3.31v2.194h.146a3.476 3.476 0 0 1 1.394-1.717c.653-.426 1.443-.64 2.373-.64.87 0 1.627.19 2.274.567.647.378 1.15.918 1.508 1.62.359.697.538 1.528.538 2.495v7.92h-3.472V14.23c.005-.761-.19-1.355-.588-1.781-.396-.433-.942-.649-1.638-.649-.467 0-.88.1-1.24.3-.352.2-.63.492-.83.875-.196.378-.297.834-.302 1.369zM85.016 9.094v2.592h-7.541V9.094h7.54zm-5.83-2.98h3.473v11.598c0 .319.05.567.147.745a.807.807 0 0 0 .408.365c.18.07.386.105.62.105.162 0 .325-.014.489-.04.163-.033.288-.057.375-.073l.546 2.567a9.81 9.81 0 0 1-.734.186 5.918 5.918 0 0 1-1.15.138c-.836.032-1.57-.078-2.2-.332a3.067 3.067 0 0 1-1.46-1.183c-.347-.534-.519-1.21-.513-2.024V6.114zM93.938 9.094v2.592h-7.54V9.094h7.54zm-5.829-2.98h3.473v11.598c0 .319.049.567.147.745a.807.807 0 0 0 .407.365c.18.07.386.105.62.105.163 0 .326-.014.489-.04.163-.033.288-.057.375-.073l.546 2.567a9.823 9.823 0 0 1-.734.186 5.918 5.918 0 0 1-1.149.138c-.837.032-1.57-.078-2.201-.332a3.068 3.068 0 0 1-1.46-1.183c-.347-.534-.518-1.21-.513-2.024V6.114zM101.772 21.778c-1.288 0-2.397-.26-3.326-.778a5.34 5.34 0 0 1-2.136-2.219c-.5-.961-.75-2.098-.75-3.41 0-1.28.25-2.402.75-3.369a5.522 5.522 0 0 1 2.111-2.26c.913-.54 1.984-.81 3.212-.81.826 0 1.595.133 2.307.397.718.26 1.343.65 1.875 1.175.538.523.957 1.182 1.256 1.976.299.788.448 1.711.448 2.77v.947H96.946V14.06h7.304c0-.496-.109-.937-.326-1.32a2.325 2.325 0 0 0-.905-.899c-.38-.221-.823-.332-1.329-.332-.527 0-.994.122-1.402.364a2.565 2.565 0 0 0-.945.964c-.229.4-.346.845-.35 1.337v2.033c0 .615.113 1.147.342 1.595.233.448.562.794.986 1.037.424.243.926.364 1.508.364.386 0 .739-.054 1.06-.162.32-.108.595-.27.823-.486.228-.216.402-.48.522-.793l3.212.21a4.351 4.351 0 0 1-1.003 2.009c-.5.567-1.147 1.01-1.94 1.328-.788.313-1.698.47-2.731.47zM109.785 21.535V9.095h3.367v2.17h.131c.228-.772.611-1.355 1.149-1.75.538-.399 1.158-.599 1.859-.599a5.275 5.275 0 0 1 1.092.122v3.061a4.57 4.57 0 0 0-.677-.13 6.107 6.107 0 0 0-.79-.056c-.511 0-.968.11-1.37.332a2.456 2.456 0 0 0-.946.907c-.228.389-.342.837-.342 1.345v7.038h-3.473z" fill="#fff"/></svg>