<svg width="80" height="80" viewBox="0 0 80 80" fill="none"
    xmlns="http://www.w3.org/2000/svg">
    <path d="M16 36L16 68" stroke="#07BB9B" stroke-width="12" stroke-linecap="round"/>
    <path d="M46 60C46 63.3137 43.3137 66 40 66C36.6863 66 34 63.3137 34 60L46 60ZM15.2558 16.9537C11.9677 16.5427 9.63532 13.5439 10.0463 10.2558C10.4573 6.96767 13.4561 4.63532 16.7442 5.04633L15.2558 16.9537ZM34 60L34 38.1868L46 38.1868L46 60L34 60ZM16.7442 5.04633C33.4577 7.13552 46 21.3432 46 38.1868L34 38.1868C34 27.3951 25.9641 18.2922 15.2558 16.9537L16.7442 5.04633Z" fill="#07BB9B"/>
    <path d="M64 36L64 68" stroke="#07BB9B" stroke-width="12" stroke-linecap="round"/>
    <path d="M34 60C34 63.3137 36.6863 66 40 66C43.3137 66 46 63.3137 46 60L34 60ZM64.7442 16.9537C68.0323 16.5427 70.3647 13.5439 69.9537 10.2558C69.5427 6.96767 66.5439 4.63532 63.2558 5.04633L64.7442 16.9537ZM46 60L46 38.1868L34 38.1868L34 60L46 60ZM63.2558 5.04633C46.5423 7.13552 34 21.3432 34 38.1868L46 38.1868C46 27.3951 54.0359 18.2922 64.7442 16.9537L63.2558 5.04633Z" fill="#07BB9B"/>
    <path d="M16 36L16 68" stroke="#07BB9B" stroke-width="12" stroke-linecap="round"/>
    <path d="M46 68C46 71.3137 43.3137 74 40 74C36.6863 74 34 71.3137 34 68L46 68ZM40 38.1868L46 38.1868L40 38.1868ZM15.2558 16.9537C11.9677 16.5427 9.63531 13.5439 10.0463 10.2558C10.4573 6.96767 13.4561 4.63532 16.7442 5.04633L15.2558 16.9537ZM34 68L34 38.1868L46 38.1868L46 68L34 68ZM16.7442 5.04633C33.4577 7.13552 46 21.3432 46 38.1868L34 38.1868C34 27.3951 25.9641 18.2922 15.2558 16.9537L16.7442 5.04633Z" fill="#07BB9B"/>
    <path d="M64 36L64 68" stroke="#07BB9B" stroke-width="12" stroke-linecap="round"/>
    <path d="M34 60C34 63.3137 36.6863 66 40 66C43.3137 66 46 63.3137 46 60L34 60ZM64.7442 16.9537C68.0323 16.5427 70.3647 13.5439 69.9537 10.2558C69.5427 6.96767 66.5439 4.63532 63.2558 5.04633L64.7442 16.9537ZM46 60L46 38.1868L34 38.1868L34 60L46 60ZM63.2558 5.04633C46.5423 7.13552 34 21.3432 34 38.1868L46 38.1868C46 27.3951 54.0359 18.2922 64.7442 16.9537L63.2558 5.04633Z" fill="#07BB9B"/>
</svg>
