<svg width="108" height="20" viewBox="0 0 108 20" fill="none" xmlns="http://www.w3.org/2000/svg">
<path d="M5 19.1C4.08 19.1 3.24667 18.8733 2.5 18.42C1.76667 17.9667 1.18667 17.3133 0.76 16.46C0.333333 15.5933 0.12 14.5733 0.12 13.4C0.12 11.3733 0.553333 9.5 1.42 7.78C2.28667 6.04667 3.56667 4.66 5.26 3.62C6.95333 2.56667 8.98667 2.04 11.36 2.04C11.9733 2.04 12.6267 2.08667 13.32 2.18C14.0267 2.27333 14.6667 2.41333 15.24 2.6C15.6133 2.70667 15.8 2.97333 15.8 3.4C15.8 3.74667 15.6667 4.07333 15.4 4.38C15.1467 4.68667 14.8467 4.84 14.5 4.84C14.3933 4.84 14.3133 4.83333 14.26 4.82C13.5667 4.66 12.9733 4.54667 12.48 4.48C11.9867 4.4 11.4667 4.36 10.92 4.36C9.22667 4.36 7.78667 4.77333 6.6 5.6C5.41333 6.41333 4.52667 7.49333 3.94 8.84C3.35333 10.1867 3.06 11.64 3.06 13.2C3.06 14.3333 3.28 15.2133 3.72 15.84C4.17333 16.4533 4.76 16.76 5.48 16.76C6.29333 16.76 7.00667 16.4267 7.62 15.76C8.23333 15.0933 8.79333 14.0133 9.3 12.52C9.80667 11.0267 10.3067 9 10.8 6.44C10.88 6.06667 11.04 5.81333 11.28 5.68C11.52 5.54667 11.84 5.48 12.24 5.48C13.1867 5.48 13.66 5.78667 13.66 6.4C13.66 6.50667 13.64 6.64 13.6 6.8C13.2533 8.09333 12.9333 9.52667 12.64 11.1C12.36 12.66 12.22 13.8467 12.22 14.66C12.22 15.38 12.3267 15.9067 12.54 16.24C12.7533 16.56 13.08 16.72 13.52 16.72C13.9467 16.72 14.3533 16.58 14.74 16.3C15.1267 16.0067 15.6133 15.5133 16.2 14.82C16.36 14.6333 16.54 14.54 16.74 14.54C16.9133 14.54 17.0467 14.62 17.14 14.78C17.2467 14.94 17.3 15.16 17.3 15.44C17.3 15.96 17.1733 16.3733 16.92 16.68C16.2667 17.4667 15.6267 18.0667 15 18.48C14.3733 18.8933 13.6067 19.1 12.7 19.1C11.7667 19.1 11.0133 18.8333 10.44 18.3C9.86667 17.7533 9.50667 16.9867 9.36 16C8.37333 18.0667 6.92 19.1 5 19.1ZM23.2627 14.54C23.436 14.54 23.5693 14.62 23.6627 14.78C23.7693 14.94 23.8227 15.16 23.8227 15.44C23.8227 15.9733 23.696 16.3867 23.4427 16.68C22.8693 17.3867 22.2427 17.9667 21.5627 18.42C20.896 18.8733 20.136 19.1 19.2827 19.1C18.1093 19.1 17.236 18.5667 16.6627 17.5C16.1027 16.4333 15.8227 15.0533 15.8227 13.36C15.8227 11.7333 16.0293 9.88 16.4427 7.8C16.8693 5.72 17.4893 3.93333 18.3027 2.44C19.1293 0.946665 20.1093 0.199999 21.2427 0.199999C21.8827 0.199999 22.3827 0.499999 22.7427 1.1C23.116 1.68667 23.3027 2.53333 23.3027 3.64C23.3027 5.22667 22.8627 7.06667 21.9827 9.16C21.1027 11.2533 19.9093 13.3267 18.4027 15.38C18.496 15.9267 18.6493 16.32 18.8627 16.56C19.076 16.7867 19.356 16.9 19.7027 16.9C20.2493 16.9 20.7293 16.7467 21.1427 16.44C21.556 16.12 22.0827 15.58 22.7227 14.82C22.8827 14.6333 23.0627 14.54 23.2627 14.54ZM20.8027 2.18C20.496 2.18 20.1493 2.73333 19.7627 3.84C19.376 4.94667 19.036 6.32 18.7427 7.96C18.4493 9.6 18.2893 11.1733 18.2627 12.68C19.2093 11.12 19.9627 9.56 20.5227 8C21.0827 6.42667 21.3627 4.99333 21.3627 3.7C21.3627 2.68667 21.176 2.18 20.8027 2.18ZM24.8261 8.36C24.2661 8.36 23.8461 8.23333 23.5661 7.98C23.2861 7.71333 23.1461 7.34667 23.1461 6.88C23.1461 6.41333 23.3261 6.02667 23.6861 5.72C24.0594 5.4 24.5194 5.24 25.0661 5.24C25.5594 5.24 25.9594 5.36 26.2661 5.6C26.5728 5.84 26.7261 6.18 26.7261 6.62C26.7261 7.15333 26.5528 7.58 26.2061 7.9C25.8594 8.20667 25.3994 8.36 24.8261 8.36ZM24.6661 19.1C23.7994 19.1 23.1661 18.7933 22.7661 18.18C22.3794 17.5667 22.1861 16.7533 22.1861 15.74C22.1861 15.14 22.2594 14.3733 22.4061 13.44C22.5661 12.4933 22.7661 11.6133 23.0061 10.8C23.1261 10.3733 23.2861 10.08 23.4861 9.92C23.6861 9.76 24.0061 9.68 24.4461 9.68C25.1261 9.68 25.4661 9.90667 25.4661 10.36C25.4661 10.6933 25.3394 11.4667 25.0861 12.68C24.7661 14.1467 24.6061 15.14 24.6061 15.66C24.6061 16.06 24.6594 16.3667 24.7661 16.58C24.8728 16.7933 25.0528 16.9 25.3061 16.9C25.5461 16.9 25.8461 16.7333 26.2061 16.4C26.5661 16.0667 27.0461 15.54 27.6461 14.82C27.8061 14.6333 27.9861 14.54 28.1861 14.54C28.3594 14.54 28.4928 14.62 28.5861 14.78C28.6928 14.94 28.7461 15.16 28.7461 15.44C28.7461 15.9733 28.6194 16.3867 28.3661 16.68C27.0461 18.2933 25.8128 19.1 24.6661 19.1ZM30.948 19.1C29.6413 19.1 28.6213 18.7333 27.888 18C27.168 17.2533 26.808 16.2733 26.808 15.06C26.808 13.98 27.0213 13.0333 27.448 12.22C27.8746 11.4067 28.428 10.78 29.108 10.34C29.788 9.9 30.5013 9.68 31.248 9.68C31.9813 9.68 32.548 9.9 32.948 10.34C33.3613 10.7667 33.568 11.32 33.568 12C33.568 12.56 33.4413 13.0333 33.188 13.42C32.948 13.8067 32.628 14 32.228 14C31.9746 14 31.768 13.94 31.608 13.82C31.4613 13.7 31.388 13.5333 31.388 13.32C31.388 13.2267 31.4013 13.12 31.428 13C31.4546 12.88 31.4746 12.7933 31.488 12.74C31.5546 12.54 31.588 12.3533 31.588 12.18C31.588 12.0067 31.5413 11.8733 31.448 11.78C31.368 11.6867 31.248 11.64 31.088 11.64C30.7813 11.64 30.4946 11.78 30.228 12.06C29.9613 12.3267 29.748 12.6933 29.588 13.16C29.428 13.6267 29.348 14.14 29.348 14.7C29.348 16.2467 30.0213 17.02 31.368 17.02C31.9146 17.02 32.5013 16.84 33.128 16.48C33.768 16.1067 34.3946 15.5533 35.008 14.82C35.168 14.6333 35.348 14.54 35.548 14.54C35.7213 14.54 35.8546 14.62 35.948 14.78C36.0546 14.94 36.108 15.16 36.108 15.44C36.108 15.9467 35.9813 16.36 35.728 16.68C35.1013 17.4533 34.348 18.0533 33.468 18.48C32.6013 18.8933 31.7613 19.1 30.948 19.1ZM41.6513 15.14C41.8246 15.14 41.9579 15.22 42.0513 15.38C42.1579 15.54 42.2113 15.76 42.2113 16.04C42.2113 16.52 42.0979 16.9333 41.8713 17.28C41.4979 17.8533 41.0046 18.3 40.3913 18.62C39.7913 18.94 39.0713 19.1 38.2313 19.1C36.9513 19.1 35.9579 18.72 35.2513 17.96C34.5446 17.1867 34.1912 16.1467 34.1912 14.84C34.1912 13.92 34.3846 13.0667 34.7713 12.28C35.1579 11.48 35.6913 10.8467 36.3713 10.38C37.0646 9.91333 37.8446 9.68 38.7113 9.68C39.4846 9.68 40.1046 9.91333 40.5713 10.38C41.0379 10.8333 41.2713 11.4533 41.2713 12.24C41.2713 13.16 40.9379 13.9533 40.2713 14.62C39.6179 15.2733 38.4979 15.7933 36.9113 16.18C37.2313 16.7933 37.7713 17.1 38.5312 17.1C39.0779 17.1 39.5246 16.9733 39.8713 16.72C40.2313 16.4667 40.6446 16.04 41.1113 15.44C41.2713 15.24 41.4513 15.14 41.6513 15.14ZM38.3713 11.64C37.8779 11.64 37.4579 11.9267 37.1113 12.5C36.7779 13.0733 36.6113 13.7667 36.6113 14.58V14.62C37.3979 14.4333 38.0179 14.1533 38.4713 13.78C38.9246 13.4067 39.1513 12.9733 39.1513 12.48C39.1513 12.2267 39.0779 12.0267 38.9313 11.88C38.7979 11.72 38.6113 11.64 38.3713 11.64ZM51.0992 16.4229L51.9181 19H52.6798L49.7027 9.75781H49.0108L46.0084 19H46.7701L47.5953 16.4229H51.0992ZM47.8048 15.7373L49.3536 10.9004L50.8897 15.7373H47.8048ZM57.4977 15.1343L59.5226 19H60.316L60.3224 18.9175L58.2086 14.9565C58.4752 14.8465 58.7185 14.7132 58.9386 14.5566C59.1629 14.4001 59.3554 14.2202 59.5162 14.0171C59.677 13.8097 59.8019 13.5791 59.8907 13.3252C59.9838 13.0713 60.0304 12.7878 60.0304 12.4746C60.0304 12.043 59.9521 11.66 59.7955 11.3257C59.6432 10.9914 59.4337 10.71 59.1671 10.4814C58.8963 10.2487 58.581 10.0731 58.2213 9.95459C57.8616 9.83187 57.4786 9.76628 57.0724 9.75781H54.4635V19H55.2125V15.1343H57.4977ZM55.2125 14.4805V10.4116H57.0724C57.3813 10.4159 57.669 10.4645 57.9356 10.5576C58.2065 10.6507 58.4392 10.7861 58.6339 10.9639C58.8328 11.1374 58.9872 11.3511 59.0973 11.605C59.2115 11.8589 59.2687 12.1466 59.2687 12.4683C59.2687 12.7645 59.2158 13.0353 59.11 13.2808C59.0084 13.522 58.8645 13.7314 58.6783 13.9092C58.4964 14.0827 58.2805 14.2202 58.0309 14.3218C57.7854 14.4233 57.5188 14.4762 57.2311 14.4805H55.2125ZM68.2125 10.4307V9.75781H61.5729V10.4307H64.5245L64.5182 19H65.2608V10.4307H68.2125ZM70.0089 9.75781V10.4434H72.256V18.3208H70.0089V19H75.36V18.3208H73.0431V10.4434H75.36V9.75781H70.0089ZM83.5738 16.1943H82.8185C82.7677 16.5117 82.6852 16.8101 82.5709 17.0894C82.4609 17.3687 82.3128 17.612 82.1266 17.8193C81.9446 18.0267 81.7203 18.1896 81.4537 18.3081C81.1913 18.4224 80.8845 18.4795 80.5333 18.4795C80.2286 18.4795 79.9599 18.4287 79.7271 18.3271C79.4944 18.2256 79.2892 18.0902 79.1114 17.9209C78.9379 17.7474 78.7898 17.5485 78.6671 17.3242C78.5486 17.0957 78.4492 16.8545 78.3688 16.6006C78.2926 16.3467 78.2376 16.0864 78.2037 15.8198C78.1699 15.5532 78.1508 15.2951 78.1466 15.0454V13.6997C78.1508 13.45 78.1699 13.194 78.2037 12.9316C78.2376 12.665 78.2926 12.4048 78.3688 12.1509C78.4492 11.897 78.5507 11.6579 78.6734 11.4336C78.7962 11.2051 78.9443 11.0062 79.1178 10.8369C79.2913 10.6676 79.4944 10.5343 79.7271 10.437C79.9641 10.3354 80.2328 10.2826 80.5333 10.2783C80.8845 10.2783 81.1913 10.3397 81.4537 10.4624C81.7161 10.5809 81.9404 10.7438 82.1266 10.9512C82.3128 11.1628 82.4609 11.4082 82.5709 11.6875C82.6852 11.9668 82.7677 12.2651 82.8185 12.5825H83.5738C83.523 12.1593 83.4194 11.7679 83.2628 11.4082C83.1105 11.0443 82.9073 10.7311 82.6534 10.4688C82.3953 10.2021 82.0885 9.99479 81.733 9.84668C81.3775 9.69857 80.9776 9.62663 80.5333 9.63086C80.1609 9.63086 79.8266 9.68799 79.5304 9.80225C79.2341 9.91227 78.9697 10.0646 78.7369 10.2593C78.5084 10.4539 78.3095 10.6846 78.1402 10.9512C77.971 11.2135 77.8313 11.495 77.7213 11.7954C77.6113 12.0959 77.5287 12.4111 77.4737 12.7412C77.4187 13.0671 77.3891 13.3908 77.3849 13.7124V15.0454C77.3891 15.3713 77.4187 15.6971 77.4737 16.0229C77.5287 16.3446 77.6113 16.6577 77.7213 16.9624C77.8313 17.2629 77.9688 17.5443 78.1339 17.8066C78.3032 18.069 78.5042 18.2975 78.7369 18.4922C78.9697 18.6868 79.2341 18.8413 79.5304 18.9556C79.8308 19.0698 80.1651 19.127 80.5333 19.127C80.9734 19.127 81.3691 19.0529 81.7203 18.9048C82.0758 18.7567 82.3805 18.5514 82.6344 18.2891C82.8925 18.0267 83.0999 17.7157 83.2564 17.356C83.4173 16.9963 83.523 16.609 83.5738 16.1943ZM86.5572 18.3271V9.75781H85.7955V19H91.2608V18.3271H86.5572ZM98.3194 14.5693V13.9028H94.2379V10.4307H98.9098V9.75781H93.4825V19H98.9415V18.3271H94.2379V14.5693H98.3194ZM106.298 16.7212C106.298 17.0259 106.235 17.2882 106.108 17.5083C105.981 17.7241 105.814 17.9019 105.607 18.0415C105.403 18.1812 105.171 18.2848 104.908 18.3525C104.646 18.4202 104.379 18.4541 104.108 18.4541C103.783 18.4541 103.478 18.4118 103.194 18.3271C102.915 18.2383 102.668 18.1071 102.452 17.9336C102.236 17.7643 102.058 17.5549 101.919 17.3052C101.779 17.0513 101.69 16.7572 101.652 16.4229H100.884C100.901 16.8206 100.988 17.1782 101.144 17.4956C101.301 17.8088 101.514 18.0796 101.785 18.3081C102.086 18.5789 102.439 18.7842 102.845 18.9238C103.252 19.0592 103.673 19.127 104.108 19.127C104.472 19.127 104.832 19.0762 105.188 18.9746C105.543 18.873 105.863 18.7228 106.146 18.5239C106.425 18.325 106.652 18.0754 106.825 17.7749C106.999 17.4702 107.086 17.1147 107.086 16.7085C107.086 16.3022 106.999 15.9489 106.825 15.6484C106.656 15.3438 106.436 15.0877 106.165 14.8804C105.882 14.6603 105.571 14.4784 105.232 14.3345C104.893 14.1906 104.555 14.0658 104.216 13.96C103.971 13.888 103.713 13.8034 103.442 13.7061C103.175 13.6045 102.93 13.4775 102.706 13.3252C102.481 13.1771 102.297 12.9972 102.153 12.7856C102.014 12.5741 101.942 12.3138 101.938 12.0049C101.938 11.7171 101.999 11.4674 102.122 11.2559C102.249 11.0443 102.414 10.8665 102.617 10.7227C102.82 10.583 103.046 10.4793 103.296 10.4116C103.55 10.3397 103.806 10.3037 104.064 10.3037C104.373 10.3037 104.654 10.3524 104.908 10.4497C105.166 10.547 105.389 10.6846 105.575 10.8623C105.765 11.04 105.918 11.2537 106.032 11.5034C106.146 11.7489 106.22 12.0218 106.254 12.3223H107.028C107.016 11.916 106.927 11.5479 106.762 11.2178C106.601 10.8835 106.387 10.5999 106.121 10.3672C105.85 10.1344 105.537 9.95459 105.181 9.82764C104.83 9.69645 104.458 9.63086 104.064 9.63086C103.713 9.63086 103.364 9.68376 103.017 9.78955C102.67 9.89111 102.359 10.0413 102.084 10.2402C101.809 10.4434 101.584 10.6951 101.411 10.9956C101.241 11.2918 101.157 11.6325 101.157 12.0176C101.161 12.4365 101.254 12.7899 101.436 13.0776C101.618 13.3654 101.853 13.613 102.141 13.8203C102.403 14.0107 102.697 14.1737 103.023 14.3091C103.349 14.4445 103.666 14.5609 103.975 14.6582C104.233 14.7386 104.5 14.8317 104.775 14.9375C105.05 15.0433 105.302 15.1724 105.53 15.3247C105.755 15.4813 105.939 15.6738 106.083 15.9023C106.231 16.1266 106.303 16.3996 106.298 16.7212Z" fill="#DE1581"/>
</svg>
