<svg width="50" height="50" viewBox="0 0 50 50" fill="none" xmlns="http://www.w3.org/2000/svg">
<path d="M23.1528 24.9912V32.1947C23.1528 33.1858 22.3317 34 21.3322 34C20.3326 34 19.5294 33.1858 19.5294 32.1947V24.9912C19.5294 24 18.7083 23.1858 17.7088 23.1858C16.7092 23.1858 15.8881 24 15.8881 24.9912V32.1947C15.8881 33.1858 15.067 34 14.0675 34C13.0679 34 12.2647 33.1858 12.2647 32.1947V24.9912C12.2647 24 11.4436 23.1858 10.4441 23.1858C9.44449 23.1858 8.62342 24 8.62342 24.9912V32.1947C8.62342 33.1858 7.80235 34 6.80279 34C5.80322 34 5 33.1858 5 32.1947V24.9912C5 22.0177 7.44536 19.5929 10.4441 19.5929C11.8363 19.5929 13.1036 20.1239 14.0675 20.9735C15.0313 20.1062 16.2987 19.5929 17.6909 19.5929C20.7074 19.5929 23.1528 22.0177 23.1528 24.9912ZM32.488 20.2301C31.4885 20.2301 30.6674 21.0442 30.6674 22.0354C30.6674 23.0265 31.4885 23.8407 32.488 23.8407C33.4876 23.8407 34.3087 23.0265 34.3087 22.0354C34.3087 21.0442 33.5054 20.2301 32.488 20.2301ZM34.3087 33.2743C35.1833 32.7788 35.4689 31.6814 34.9691 30.8142C34.4693 29.9469 33.3626 29.6637 32.488 30.1593C32.2024 30.3186 31.899 30.4071 31.5777 30.4071C30.5781 30.4071 29.7571 29.5929 29.7571 28.6018V17.8053C29.7571 16.8142 28.936 16 27.9364 16C26.9369 16 26.1158 16.8142 26.1158 17.8053V28.6018C26.1158 31.5752 28.5612 34 31.5599 34C32.5416 34 33.4876 33.7522 34.3087 33.2743ZM43.2869 18.9735C42.2873 18.9735 41.4663 19.7876 41.4663 20.7788C41.4663 21.7699 42.2873 22.5841 43.2869 22.5841C44.2865 22.5841 45.1075 21.7699 45.1075 20.7788C45.1075 19.7876 44.2865 18.9735 43.2869 18.9735ZM45.0897 33.2743C45.9643 32.7788 46.2499 31.6814 45.7501 30.8142C45.2503 29.9469 44.1437 29.6637 43.269 30.1593C42.9835 30.3186 42.68 30.4071 42.3587 30.4071C41.3592 30.4071 40.5381 29.5929 40.5381 28.6018V17.8053C40.5559 16.8142 39.7349 16 38.7353 16C37.7357 16 36.9147 16.8142 36.9147 17.8053V28.6018C36.9147 31.5752 39.36 34 42.3587 34C43.3226 34 44.2686 33.7522 45.0897 33.2743Z" fill="#5200FF"/>
</svg>
