<svg width="24" height="24" viewBox="0 0 24 24" fill="none" xmlns="http://www.w3.org/2000/svg">
<path fill-rule="evenodd" clip-rule="evenodd" d="M19.5022 12C19.5022 12.34 19.4722 12.66 19.4322 12.98L21.5422 14.63C21.7322 14.78 21.7822 15.05 21.6622 15.27L19.6622 18.73C19.5722 18.89 19.4022 18.98 19.2322 18.98C19.1722 18.98 19.1122 18.97 19.0522 18.95L16.5622 17.95C16.0422 18.34 15.4822 18.68 14.8722 18.93L14.4922 21.58C14.4622 21.82 14.2522 22 14.0022 22H10.0022C9.75222 22 9.54222 21.82 9.51222 21.58L9.13222 18.93C8.52222 18.68 7.96222 18.35 7.44222 17.95L4.95222 18.95C4.90222 18.97 4.84222 18.98 4.78222 18.98C4.60222 18.98 4.43222 18.89 4.34222 18.73L2.34222 15.27C2.22222 15.05 2.27222 14.78 2.46222 14.63L4.57222 12.98C4.53222 12.66 4.50222 12.33 4.50222 12C4.50222 11.67 4.53222 11.34 4.57222 11.02L2.46222 9.37C2.27222 9.22 2.21222 8.95 2.34222 8.73L4.34222 5.27C4.43222 5.11 4.60222 5.02 4.77222 5.02C4.83222 5.02 4.89222 5.03 4.95222 5.05L7.44222 6.05C7.96222 5.66 8.52222 5.32 9.13222 5.07L9.51222 2.42C9.54222 2.18 9.75222 2 10.0022 2H14.0022C14.2522 2 14.4622 2.18 14.4922 2.42L14.8722 5.07C15.4822 5.32 16.0422 5.65 16.5622 6.05L19.0522 5.05C19.1022 5.03 19.1622 5.02 19.2222 5.02C19.4022 5.02 19.5722 5.11 19.6622 5.27L21.6622 8.73C21.7822 8.95 21.7322 9.22 21.5422 9.37L19.4322 11.02C19.4722 11.34 19.5022 11.66 19.5022 12ZM17.5022 12C17.5022 11.79 17.4922 11.58 17.4522 11.27L17.3122 10.14L18.2022 9.44L19.2722 8.59L18.5722 7.38L17.3022 7.89L16.2422 8.32L15.3322 7.62C14.9322 7.32 14.5322 7.09 14.1022 6.91L13.0422 6.48L12.8822 5.35L12.6922 4H11.3022L11.1022 5.35L10.9422 6.48L9.88222 6.91C9.47222 7.08 9.06222 7.32 8.63222 7.64L7.73222 8.32L6.69222 7.9L5.42222 7.39L4.72222 8.6L5.80222 9.44L6.69222 10.14L6.55222 11.27C6.52222 11.57 6.50222 11.8 6.50222 12C6.50222 12.2 6.52222 12.43 6.55222 12.74L6.69222 13.87L5.80222 14.57L4.72222 15.41L5.42222 16.62L6.69222 16.11L7.75222 15.68L8.66222 16.38C9.06222 16.68 9.46222 16.91 9.89222 17.09L10.9522 17.52L11.1122 18.65L11.3022 20H12.7022L12.9022 18.65L13.0622 17.52L14.1222 17.09C14.5322 16.92 14.9422 16.68 15.3722 16.36L16.2722 15.68L17.3122 16.1L18.5822 16.61L19.2822 15.4L18.2022 14.56L17.3122 13.86L17.4522 12.73C17.4822 12.43 17.5022 12.21 17.5022 12ZM12.0022 8C9.79222 8 8.00222 9.79 8.00222 12C8.00222 14.21 9.79222 16 12.0022 16C14.2122 16 16.0022 14.21 16.0022 12C16.0022 9.79 14.2122 8 12.0022 8ZM10.0022 12C10.0022 13.1 10.9022 14 12.0022 14C13.1022 14 14.0022 13.1 14.0022 12C14.0022 10.9 13.1022 10 12.0022 10C10.9022 10 10.0022 10.9 10.0022 12Z" fill="#999999"/>
</svg>
