<?xml version="1.0" standalone="no"?>
<!DOCTYPE svg PUBLIC "-//W3C//DTD SVG 20010904//EN"
 "http://www.w3.org/TR/2001/REC-SVG-20010904/DTD/svg10.dtd">
<svg version="1.0" xmlns="http://www.w3.org/2000/svg"
 width="293.000000pt" height="293.000000pt" viewBox="0 0 293.000000 293.000000"
 preserveAspectRatio="xMidYMid meet">
<metadata>
Created by potrace 1.14, written by Peter Selinger 2001-2017
</metadata>
<g transform="translate(0.000000,293.000000) scale(0.100000,-0.100000)"
fill="#000000" stroke="none">
<path d="M1285 2920 c-22 -4 -58 -10 -80 -13 -168 -24 -392 -116 -564 -232
-287 -193 -505 -502 -592 -839 -37 -142 -48 -242 -44 -406 2 -85 6 -166 9
-180 6 -24 9 -40 21 -105 17 -84 74 -240 125 -341 165 -326 435 -570 780 -707
84 -33 210 -65 319 -82 98 -15 371 -13 441 3 25 6 61 14 80 17 145 24 389 133
535 238 123 88 255 219 336 332 110 155 179 300 233 496 16 56 18 69 35 189
10 67 7 323 -4 395 -32 201 -115 415 -231 591 -211 321 -543 543 -934 625
-111 23 -382 34 -465 19z"/>
</g>
</svg>
